PathFileType	4	(X/Y/Z)	./resultDataOpenSim/trcMotMarkerGrf/sub06/qtm-02-03.trc
DataRate	CameraRate	NumFrames	NumMarkers	Units	OrigDataRate	OrigDataStartFrame	OrigNumFrames
250.000000	250.000000	9	24	m	250.000000	194	516
Frame#	Time	L.Toe.Tip			R.Toe.Tip			L.Ankle.Lat			R.Ankle.Lat			L.Ankle.Med			R.Ankle.Med			L.Heel			R.Heel			L.Knee.Lat			R.Knee.Lat			L.Knee.Med			R.Knee.Med			L.Thigh.Upper			R.Thigh.Upper			L.ASIS			R.ASIS			V.Sacral			L.Acromium			R.Acromium			C7			L.Elbow			R.Elbow			L.Wrist.Lat			R.Wrist.Lat
		X1	Y1	Z1	X2	Y2	Z2	X3	Y3	Z3	X4	Y4	Z4	X5	Y5	Z5	X6	Y6	Z6	X7	Y7	Z7	X8	Y8	Z8	X9	Y9	Z9	X10	Y10	Z10	X11	Y11	Z11	X12	Y12	Z12	X13	Y13	Z13	X14	Y14	Z14	X15	Y15	Z15	X16	Y16	Z16	X17	Y17	Z17	X18	Y18	Z18	X19	Y19	Z19	X20	Y20	Z20	X21	Y21	Z21	X22	Y22	Z22	X23	Y23	Z23	X24	Y24	Z24

194	0.772	0.037701706	0.010138352	-0.031699795	-0.51050582	0.09434297	0.1244177	-0.084330389	0.041432109	-0.060667885	-0.52775749	0.23168731	0.1493318	-0.088489418	0.055869953	0.026245669	-0.48766599	0.22075467	0.069704707	-0.16247919	0.01524776	-0.020493559	-0.55605349	0.27343495	0.085726015	-0.0091524718	0.40722258	-0.080296472	-0.18010246	0.37320283	0.19683135	-0.03948379	0.40626037	0.037807452	-0.17821615	0.35644458	0.0619089	-0.13868075	0.78134354	-0.15152083	-0.22351299	0.73747157	0.18054672	-0.083402279	0.81778701	-0.09246933	-0.11876686	0.7983951	0.15138378	-0.28596571	0.88659034	0.015265212	-0.15154288	1.2868692	-0.17149663	-0.16992595	1.2863743	0.19133198	-0.23970024	1.3248115	0.0046194552	-0.23609017	0.98195975	-0.21055452	-0.23456191	0.97172038	0.2576846	-0.14163553	0.76275707	-0.26300904	-0.045462019	0.81354145	0.29214052
195	0.776	0.037639462	0.010132716	-0.031714453	-0.49365593	0.095599718	0.12541607	-0.084396829	0.041509554	-0.060677114	-0.51279881	0.23278354	0.1495048	-0.088621317	0.056009966	0.026194549	-0.4726397	0.2220373	0.07016773	-0.16253	0.015342149	-0.020502921	-0.54205174	0.27387193	0.08574869	-0.0077547066	0.40715235	-0.080184324	-0.16654888	0.37599407	0.19731468	-0.0390042	0.40664613	0.037820447	-0.16448936	0.35927502	0.062435922	-0.13381878	0.78244716	-0.151954	-0.21702382	0.73974929	0.18037081	-0.077603551	0.81913187	-0.092974811	-0.11267697	0.80055613	0.15126168	-0.2824833	0.88889107	0.014955368	-0.14452224	1.2890708	-0.17131492	-0.16380896	1.2884122	0.19155115	-0.23295504	1.3268365	0.00466974	-0.22779887	0.98351146	-0.21098393	-0.22969925	0.97401818	0.256947	-0.13052106	0.76529184	-0.26259412	-0.043752557	0.81289769	0.29254409
196	0.78	0.037579567	0.010138682	-0.031729005	-0.47666639	0.096650869	0.12636974	-0.084469114	0.041587345	-0.060690666	-0.49777693	0.23355004	0.14972056	-0.088731629	0.05614723	0.026147617	-0.45757744	0.22308568	0.070558078	-0.16257826	0.015442276	-0.020515932	-0.52795211	0.27403464	0.085808575	-0.0064893698	0.40714175	-0.080019514	-0.15310522	0.37897674	0.19772066	-0.038434051	0.40701241	0.037914052	-0.1508078	0.36214057	0.062889202	-0.1291631	0.78356485	-0.15236147	-0.21045311	0.7421073	0.18025237	-0.071894344	0.82050803	-0.093532983	-0.10654472	0.8027489	0.15108672	-0.27831349	0.89121379	0.014384248	-0.13757548	1.2913109	-0.17112321	-0.15768925	1.2904612	0.19177787	-0.2262768	1.3288733	0.0047782546	-0.21951029	0.98510541	-0.21142215	-0.22476727	0.97635366	0.25626267	-0.11938595	0.7679148	-0.26213451	-0.042137812	0.81237197	0.29296244
197	0.784	0.037529879	0.010157728	-0.031747514	-0.45951358	0.097519559	0.12728512	-0.084530448	0.041666403	-0.060699571	-0.48273569	0.23400401	0.14996677	-0.088828094	0.056290307	0.026100599	-0.4424114	0.22389212	0.07075284	-0.16261907	0.015546952	-0.020505581	-0.51380056	0.27395419	0.08591114	-0.0053564594	0.40719357	-0.07980652	-0.13977694	0.38213095	0.19805015	-0.037769609	0.40734879	0.038077012	-0.13721708	0.36502757	0.063246312	-0.12454041	0.7847183	-0.15273518	-0.20376961	0.74451004	0.18018655	-0.06628601	0.82190984	-0.09413633	-0.10035787	0.80497304	0.15086272	-0.27267552	0.89347845	0.013766121	-0.13069547	1.293588	-0.17091621	-0.15155721	1.292512	0.19199935	-0.21964846	1.3309162	0.004928617	-0.21123214	0.98674149	-0.21188265	-0.21985625	0.97873709	0.25565027	-0.10822886	0.770621	-0.26163595	-0.040611782	0.81195999	0.29339393
198	0.788	0.03748829	0.010180574	-0.031763289	-0.44215839	0.098240281	0.12820644	-0.08457875	0.041750459	-0.060700974	-0.4677167	0.23419272	0.15023927	-0.088919147	0.056444213	0.026055644	-0.4271003	0.22445071	0.070749583	-0.16264369	0.015646887	-0.020419794	-0.49963137	0.27364043	0.086048757	-0.0043500409	0.40730282	-0.079559323	-0.12656092	0.3854462	0.19831618	-0.037103739	0.40762857	0.038249698	-0.12369279	0.36794974	0.063543395	-0.11983475	0.78591591	-0.15309296	-0.19691858	0.74693354	0.18015904	-0.060744928	0.82334401	-0.094764663	-0.094114373	0.80722938	0.15059277	-0.2657392	0.89567612	0.013291955	-0.12387548	1.2959037	-0.17068939	-0.14541064	1.2945539	0.19220679	-0.21300461	1.3329496	0.0050701275	-0.20297236	0.98841746	-0.21237659	-0.21503473	0.98117696	0.25511143	-0.097049588	0.7734061	-0.261103	-0.039165049	0.8116561	0.29384096
199	0.792	0.037447036	0.010198625	-0.031772377	-0.42455733	0.098841992	0.12918311	-0.084624503	0.041846246	-0.060698764	-0.4527027	0.23417164	0.15055219	-0.089009864	0.056608733	0.026016924	-0.41170975	0.2247773	0.07065009	-0.16264237	0.01573132	-0.02021751	-0.48549416	0.27308227	0.086217479	-0.0034641957	0.40745064	-0.079304342	-0.11344951	0.38891275	0.19853189	-0.036575835	0.40781573	0.038347661	-0.11016755	0.37095439	0.063821216	-0.11505839	0.78713686	-0.1534632	-0.1898897	0.74938349	0.18017383	-0.055241061	0.82481401	-0.095405001	-0.087818505	0.80951641	0.150276	-0.2582557	0.89784176	0.012985254	-0.11710871	1.2982555	-0.17044218	-0.13924287	1.2965803	0.19239721	-0.20628507	1.3349618	0.0051583294	-0.1947387	0.99012623	-0.21290946	-0.21035058	0.98367554	0.25464441	-0.08584189	0.7762675	-0.26053712	-0.037778139	0.81145457	0.29430722
200	0.796	0.037402217	0.010211243	-0.031778732	-0.40671394	0.099312646	0.13021259	-0.084679958	0.041959196	-0.060698928	-0.43757421	0.23399226	0.15090668	-0.08910402	0.056778779	0.025982477	-0.39635717	0.22490804	0.070574594	-0.16261918	0.015803085	-0.019932502	-0.47141369	0.27224825	0.086401435	-0.0026999574	0.40761294	-0.079064973	-0.10043436	0.39251252	0.19870507	-0.036266619	0.40789988	0.038326884	-0.096663405	0.37410868	0.064041169	-0.11027329	0.78835352	-0.15385708	-0.18278029	0.7518886	0.18026921	-0.049730126	0.82632008	-0.096038915	-0.081473825	0.81182622	0.14991126	-0.25119325	0.90002898	0.012844725	-0.11038664	1.3006347	-0.17017822	-0.13303839	1.2985882	0.19257041	-0.19952328	1.336958	0.0052255984	-0.18653744	0.99185122	-0.21347934	-0.20582887	0.98622512	0.25424564	-0.074586674	0.77920622	-0.25993548	-0.036420684	0.8113486	0.29479584
201	0.8	0.037354534	0.010222292	-0.031788956	-0.38868255	0.099613017	0.13124438	-0.084748691	0.042088603	-0.060703549	-0.42218132	0.23366263	0.1512611	-0.089206828	0.056948329	0.025945632	-0.38101796	0.22485778	0.070592099	-0.1626064	0.015882078	-0.019689596	-0.45729591	0.27106854	0.08652956	-0.0020657968	0.40777156	-0.078853308	-0.087512115	0.39621972	0.19883867	-0.036111418	0.40792906	0.038238692	-0.083248879	0.37744557	0.064131136	-0.10552553	0.78955541	-0.15426027	-0.17570481	0.75444017	0.18047576	-0.04412536	0.82787434	-0.096627038	-0.075079573	0.81415006	0.14949927	-0.24504726	0.90226675	0.012881824	-0.10370172	1.3030293	-0.16990025	-0.12678074	1.3005729	0.19272633	-0.19280719	1.3389448	0.0053510309	-0.17836547	0.99357057	-0.21407305	-0.20144174	0.98881114	0.25389726	-0.06327394	0.7822244	-0.25929249	-0.035067272	0.81133033	0.2953077
202	0.804	0.037305597	0.010235245	-0.031807966	-0.37050231	0.099732465	0.13224139	-0.084824014	0.042228577	-0.06070841	-0.40654526	0.23308836	0.15154105	-0.089324111	0.057118691	0.025904685	-0.36549693	0.22460434	0.070756809	-0.16265241	0.015990124	-0.019634848	-0.44291197	0.26942476	0.086476496	-0.0015543661	0.40792051	-0.078669699	-0.074685283	0.40000716	0.19893074	-0.035964498	0.40796899	0.03817762	-0.069863065	0.38092809	0.064097067	-0.10081859	0.79074689	-0.15464412	-0.16870162	0.75697958	0.18080507	-0.038354014	0.8294976	-0.097131757	-0.068634596	0.81648705	0.14904347	-0.23945845	0.9044906	0.012963849	-0.097052579	1.3054248	-0.16961068	-0.12046025	1.302524	0.19286187	-0.18616301	1.3409116	0.005558892	-0.17021231	0.99527062	-0.21467294	-0.19712539	0.99141629	0.2535725	-0.051930567	0.78531564	-0.25860353	-0.033730024	0.81139953	0.2958422
